<?xml version="1.0" encoding="UTF-8" standalone="no"?>
<!-- Created with Inkscape (http://www.inkscape.org/) -->

<svg
   xmlns:dc="http://purl.org/dc/elements/1.1/"
   xmlns:cc="http://creativecommons.org/ns#"
   xmlns:rdf="http://www.w3.org/1999/02/22-rdf-syntax-ns#"
   xmlns:svg="http://www.w3.org/2000/svg"
   xmlns="http://www.w3.org/2000/svg"
   xmlns:sodipodi="http://sodipodi.sourceforge.net/DTD/sodipodi-0.dtd"
   xmlns:inkscape="http://www.inkscape.org/namespaces/inkscape"
   viewBox="0 0 951.28528 729.86658"
   version="1.1"
   id="svg4870"
   inkscape:version="0.92.4 (5da689c313, 2019-01-14)"
   sodipodi:docname="protodraft.svg"
   width="951.28528"
   height="729.86658"
   style="enable-background:new">
  <defs
     id="defs4864" />
  <sodipodi:namedview
     id="base"
     pagecolor="#ffffff"
     bordercolor="#666666"
     borderopacity="1.0"
     inkscape:pageopacity="0.0"
     inkscape:pageshadow="2"
     inkscape:zoom="0.7"
     inkscape:cx="579.15179"
     inkscape:cy="333.10303"
     inkscape:document-units="px"
     inkscape:current-layer="layer1"
     showgrid="false"
     inkscape:window-width="2560"
     inkscape:window-height="1017"
     inkscape:window-x="1912"
     inkscape:window-y="-8"
     inkscape:window-maximized="1"
     units="px"
     fit-margin-top="0"
     fit-margin-left="0"
     fit-margin-right="0"
     fit-margin-bottom="0" />
  <metadata
     id="metadata4867">
    <rdf:RDF>
      <cc:Work
         rdf:about="">
        <dc:format>image/svg+xml</dc:format>
        <dc:type
           rdf:resource="http://purl.org/dc/dcmitype/StillImage" />
        <dc:title></dc:title>
      </cc:Work>
    </rdf:RDF>
  </metadata>
  <g
     inkscape:label="Layer 1"
     inkscape:groupmode="layer"
     id="layer1"
     transform="translate(-72.463036,660.02388)">
    <path
       style="fill:#eeeeee;fill-opacity:1;stroke-width:0.68120956"
       d="M 0,-0.1328125 V 729.86719 H 952 V -0.1328125 Z m 246.85352,60.9550785 17.44336,48.794924 c -17.85867,6.42306 -30.4214,17.92241 -37.68946,34.49804 -7.0604,16.36844 -10.58984,36.77751 -10.58984,61.22657 v 63.08984 c 0,21.54832 -4.67293,40.71522 -14.01758,57.49805 -9.34465,16.57563 -23.36148,29.52386 -42.05078,38.84765 18.6893,9.73819 32.70613,22.99843 42.05078,39.78125 9.34465,16.57564 14.01758,35.43053 14.01758,56.56446 v 63.09179 c 0,24.44906 3.52944,44.85813 10.58984,61.22657 7.26806,16.57563 19.83079,28.07499 37.68946,34.49804 l -17.44336,49.10547 C 206.36004,657.64917 177.49545,639.5197 160.25977,614.65625 143.23174,589.7928 134.71875,559.64526 134.71875,524.21484 v -63.09179 c 0,-20.51235 -4.56809,-36.46558 -13.70508,-47.86133 -8.92933,-11.39575 -22.843276,-17.09375 -41.740232,-17.09375 v -62.46875 c 18.896956,0 32.810902,-5.59465 41.740232,-16.7832 9.13699,-11.39575 13.70508,-27.55764 13.70508,-48.48438 V 205.3418 c 0,-35.43042 8.51299,-65.47461 25.54102,-90.13086 17.23568,-24.863452 46.10027,-42.992927 86.59375,-54.388674 z m 457.88867,0 c 40.28582,11.395747 69.04752,29.525222 86.2832,54.388674 17.23569,24.65625 25.85352,54.70044 25.85352,90.13086 v 63.08984 c 0,20.92674 4.46324,37.08863 13.39257,48.48438 8.92934,11.18855 22.84328,16.7832 41.74024,16.7832 v 62.46875 c -18.89696,0 -32.8109,5.698 -41.74024,17.09375 -8.92933,11.39575 -13.39257,27.34898 -13.39257,47.86133 v 63.09179 c 0,35.43042 -8.61783,65.57796 -25.85352,90.44141 -17.23568,24.86345 -45.99738,42.99292 -86.2832,54.38867 l -17.44336,-49.10547 c 17.44334,-6.42305 29.79834,-17.92241 37.0664,-34.49804 7.26806,-16.36844 10.90235,-36.77751 10.90235,-61.22657 v -63.09179 c 0,-21.54833 4.77582,-40.60992 14.32812,-57.18555 9.55231,-16.57563 24.08945,-29.52582 43.60938,-38.84961 -19.51993,-9.32379 -34.05707,-22.27202 -43.60938,-38.84766 -9.5523,-16.78282 -14.32812,-36.05307 -14.32812,-57.80859 V 205.3418 c 0,-24.44906 -3.63429,-44.85813 -10.90235,-61.22657 -7.26806,-16.57563 -19.62306,-28.07498 -37.0664,-34.49804 z M 288.90625,104.64453 h 48.2793 167.58203 c 51.91471,0 92.82173,13.36359 122.72461,40.0918 30.11053,26.52101 45.16601,61.32913 45.16601,104.42578 0,43.30384 -15.05548,78.11392 -45.16601,104.42773 -29.90288,26.31382 -70.8099,39.47071 -122.72461,39.47071 h -76.62696 v 100.38476 l 48.5918,9.32422 V 557.1582 H 288.90625 v -54.38867 l 48.2793,-9.32422 V 168.66797 l -48.2793,-9.32422 z m 139.23437,69.92774 v 148.55859 h 76.62696 c 25.33438,0 44.43765,-6.83682 57.3125,-20.51172 13.08251,-13.88209 19.625,-31.49286 19.625,-52.83398 0,-21.75552 -6.54249,-39.67829 -19.625,-53.76758 -12.87485,-14.29649 -31.97812,-21.44531 -57.3125,-21.44531 z"
       transform="translate(72.463036,-660.02388)"
       id="rect814"
       inkscape:connector-curvature="0" />
  </g>
</svg>
