<svg xmlns="http://www.w3.org/2000/svg" version="1.1" x="0px" y="0px" viewBox="0 0 100 100"><g transform="translate(0,-952.36218)"><path d="M 62.1875 13 A 3.0040663 3.0040663 0 1 0 62.5 19 C 77.185964 19 89 30.75732 89 45.3125 A 3.0003 3.0003 0 1 0 95 45.3125 C 95 27.49284 80.406886 13 62.5 13 A 3.0003 3.0003 0 0 0 62.1875 13 z M 62.1875 25.75 A 3.0040663 3.0040663 0 1 0 62.5 31.75 C 70.094123 31.75 76.15625 37.80537 76.15625 45.3125 A 3.0003 3.0003 0 1 0 82.15625 45.3125 C 82.15625 34.53993 73.314093 25.75 62.5 25.75 A 3.0003 3.0003 0 0 0 62.1875 25.75 z M 53.6875 37.5625 C 48.5297 37.5625 43.926954 39.87687 40.71875 43.4375 C 38.454775 42.3801 36.023519 41.625 33.375 41.625 C 25.035267 41.625 18.082682 47.52432 16.375 55.34375 C 9.7523677 56.98245 5 63.42375 5 70.90625 C 5 79.56555 11.348519 87 19.59375 87 L 64.78125 87 C 73.026488 87 79.375 79.56555 79.375 70.90625 C 79.375 64.60005 75.976478 59.2336 70.9375 56.625 C 71.00108 56.0542 71.15625 55.5384 71.15625 54.9375 C 71.15625 45.36382 63.292843 37.5625 53.6875 37.5625 z M 53.6875 43.5625 C 60.076257 43.5625 65.15625 48.6239 65.15625 54.9375 C 65.15625 55.8092 65.029946 56.69295 64.8125 57.59375 A 3.0003 3.0003 0 0 0 66.875 61.1875 C 70.452473 62.2369 73.375 66.03725 73.375 70.90625 C 73.375 76.70165 69.389846 81 64.78125 81 L 19.59375 81 C 14.985167 81 11 76.70165 11 70.90625 C 11 65.30665 14.769491 61.17445 19.15625 60.90625 A 3.0003 3.0003 0 0 0 21.9375 58.125 C 22.391448 52.2422 27.293768 47.625 33.375 47.625 C 35.793872 47.625 38.005317 48.34765 39.84375 49.59375 A 3.0003 3.0003 0 0 0 44.03125 48.75 C 46.074668 45.63181 49.626154 43.5625 53.6875 43.5625 z " transform="translate(0,952.36218)"/></g></svg>