<svg xmlns="http://www.w3.org/2000/svg" version="1.1" x="0px" y="0px" viewBox="0 0 100 100"><g transform="translate(0,-952.36218)"><path d="M 23.53125 4.9375 A 3.0003 3.0003 0 0 0 20.59375 8 L 20.59375 13.84375 L 17.1875 13.84375 C 15.476049 13.84375 14 15.29854 14 17 L 14 82.96875 C 14 84.67015 15.476049 86.125 17.1875 86.125 L 20.59375 86.125 L 20.59375 92 A 3.0003 3.0003 0 1 0 26.59375 92 L 26.59375 86.125 L 33.78125 86.125 L 33.78125 92 A 3.0003 3.0003 0 1 0 39.78125 92 L 39.78125 86.125 L 47 86.125 L 47 92 A 3.0003 3.0003 0 1 0 53 92 L 53 86.125 L 60.21875 86.125 L 60.21875 92 A 3.0003 3.0003 0 1 0 66.21875 92 L 66.21875 86.125 L 73.40625 86.125 L 73.40625 92 A 3.0003 3.0003 0 1 0 79.40625 92 L 79.40625 86.125 L 82.8125 86.125 C 84.523951 86.125 86 84.67015 86 82.96875 L 86 17 C 86 15.29854 84.523951 13.84375 82.8125 13.84375 L 79.40625 13.84375 L 79.40625 8 A 3.0003 3.0003 0 0 0 76.375 4.9375 A 3.0003 3.0003 0 0 0 73.40625 8 L 73.40625 13.84375 L 66.21875 13.84375 L 66.21875 8 A 3.0003 3.0003 0 0 0 63.15625 4.9375 A 3.0003 3.0003 0 0 0 60.21875 8 L 60.21875 13.84375 L 53 13.84375 L 53 8 A 3.0003 3.0003 0 0 0 49.96875 4.9375 A 3.0003 3.0003 0 0 0 47 8 L 47 13.84375 L 39.78125 13.84375 L 39.78125 8 A 3.0003 3.0003 0 0 0 36.75 4.9375 A 3.0003 3.0003 0 0 0 33.78125 8 L 33.78125 13.84375 L 26.59375 13.84375 L 26.59375 8 A 3.0003 3.0003 0 0 0 23.53125 4.9375 z M 20 19.84375 L 80 19.84375 L 80 80.125 L 20 80.125 L 20 19.84375 z M 31.65625 29.34375 C 29.989782 29.34375 28.5625 30.78117 28.5625 32.4375 L 28.5625 67.53125 C 28.5625 69.18765 29.989782 70.625 31.65625 70.625 L 68.34375 70.625 C 70.010218 70.625 71.4375 69.18765 71.4375 67.53125 L 71.4375 32.4375 C 71.4375 30.78117 70.010218 29.34375 68.34375 29.34375 L 31.65625 29.34375 z M 34.5625 35.34375 L 65.4375 35.34375 L 65.4375 64.625 L 34.5625 64.625 L 34.5625 35.34375 z " transform="translate(0,952.36218)"/></g></svg>