<svg xmlns="http://www.w3.org/2000/svg" data-name="Layer 1" viewBox="0 0 100 100" x="0px" y="0px"><g data-name="Group"><path data-name="Compound Path" d="M96.7,19.8a13,13,0,0,0-13-13H16.3a13,13,0,0,0-13,13V80.2a13,13,0,0,0,13,13H83.7a13,13,0,0,0,13-13Zm-80.4-7H83.7a7,7,0,0,1,7,7V31.17H9.3V19.8A7,7,0,0,1,16.3,12.8ZM83.7,87.2H16.3a7,7,0,0,1-7-7v-43H90.7v43A7,7,0,0,1,83.7,87.2Z"/><path data-name="Path" d="M18,24.32h7a3,3,0,1,0,0-6H18a3,3,0,0,0,0,6Z"/><path data-name="Path" d="M37.83,24.32h7a3,3,0,1,0,0-6h-7a3,3,0,0,0,0,6Z"/><path data-name="Path" d="M37.86,48a3,3,0,0,0-4.24.11L22.9,59.42a3,3,0,0,0,0,4.13L33.61,74.85A3,3,0,1,0,38,70.72l-8.75-9.23L38,52.29A3,3,0,0,0,37.86,48Z"/><path data-name="Path" d="M66.38,48.15A3,3,0,1,0,62,52.29l8.75,9.2L62,70.72a3,3,0,0,0,4.35,4.13L77.1,63.55a3,3,0,0,0,0-4.13Z"/><path data-name="Path" d="M55.78,42.72a3,3,0,0,0-3.75,2l-9.8,31.83A3,3,0,1,0,48,78.3l9.8-31.83A3,3,0,0,0,55.78,42.72Z"/></g></svg>